<svg id="Layer_1" data-name="Layer 1" xmlns="http://www.w3.org/2000/svg" viewBox="0 0 32 32"><defs><style>.cls-1{fill:#fff;}</style></defs><path class="cls-1" d="M15.9009,31.5176a7.7705,7.7705,0,0,1-1.354-.1114,4.83,4.83,0,0,1-3.8062-2.871c-.0425-.1192-.08-.2413-.1162-.3633a1.7422,1.7422,0,0,0-.3457-.7481,1.6993,1.6993,0,0,0-1.0889-.247,2.9339,2.9339,0,0,1-1.5717-.36A2.88,2.88,0,0,1,6.59,25.07l-.0659-.22a6.8271,6.8271,0,0,0-.8789-1.8223,1.7177,1.7177,0,0,0-.5874-.5947,1.3751,1.3751,0,0,0-.6045-.1055,3.7306,3.7306,0,0,0-2.4482.9424l-.7871.7109-.0474-1.0595A29.7044,29.7044,0,0,1,1.4194,17.55a8.82,8.82,0,0,1,.9634-3.2651,10.22,10.22,0,0,1,.6265-.9258c.1582-.2163.3169-.4321.46-.6587.0171-.0352.0313-.0645.0435-.0889L3.51,12.54A12.0511,12.0511,0,0,1,27.57,11.5317c.2656.4263.5664.8321.8848,1.26.3291.4438.67.9028.9678,1.3877A9.8123,9.8123,0,0,1,30.69,21.0869l-.123.6445-.5889-.289a7.007,7.007,0,0,0-2.501-.6963c-.0488-.0039-.0986-.0078-.1484-.0078a.2908.2908,0,0,0-.12.0156.7755.7755,0,0,0-.1631.1943,7.4027,7.4027,0,0,0-1.2432,3.55l-.01.1309a2.5934,2.5934,0,0,1-.3682,1.3662,2.3709,2.3709,0,0,1-1.457.8389,8,8,0,0,1-3.0225.1191,3.4229,3.4229,0,0,0-.4277,2.3848,1.698,1.698,0,0,1,.0234.8428c-.2158.74-1.0625.8925-1.3808.95A18.4963,18.4963,0,0,1,15.9009,31.5176Zm-3.188-11.7237a21.2243,21.2243,0,0,1,1.0522,2.6211,2.7718,2.7718,0,0,1,.7574-.4912c.1162-.0508.2373-.0937.3584-.1367a1.8588,1.8588,0,0,0,.4965-.2256,2.0059,2.0059,0,0,0,.4307-.6074,2.1034,2.1034,0,0,1,1.03-1.085l.4175-.1572.2041.3955a3.7089,3.7089,0,0,1,.36,1.085,4.7662,4.7662,0,0,0,.583-.291q1.4356-.8,2.8428-1.6475a5.0153,5.0153,0,0,0,1.3486-1.0332,5.1747,5.1747,0,0,0,.4385-.6738c.0781-.1367.1582-.2725.2422-.4053.043-.0674.0879-.1348.1338-.2007a27.46,27.46,0,0,1-2.8828.5c-1.1026.15-2.2432.3057-3.3907.3526-.2426.01-.4843.0146-.727.0146a18.131,18.131,0,0,1-4.104-.4707,8.7931,8.7931,0,0,1-2.2041-.7793l.0083.03a5.4153,5.4153,0,0,1,.1323.9473c.0137.1757.0274.3525.0537.5273a7.2821,7.2821,0,0,0,.461,1.4873,10.8347,10.8347,0,0,1,.4174,1.22,2.25,2.25,0,0,0,.6163-.9228l.3974-1.1455ZM20.4824,6.51A3.3838,3.3838,0,1,0,23.8662,9.894,3.3874,3.3874,0,0,0,20.4824,6.51Zm-9.6059,0A3.3838,3.3838,0,1,0,14.26,9.894,3.3877,3.3877,0,0,0,10.8765,6.51Z"/><path d="M15.5669.9822A11.55,11.55,0,0,1,27.0813,11.691c.5736.9484,1.3314,1.8006,1.916,2.75a9.3,9.3,0,0,1,1.2016,6.5512,7.5759,7.5759,0,0,0-2.6789-.7446c-.0631-.0054-.1275-.01-.1915-.01a.7569.7569,0,0,0-.3415.0677,1.0008,1.0008,0,0,0-.3553.3618,7.9315,7.9315,0,0,0-1.3268,3.7906,2.4752,2.4752,0,0,1-.29,1.25,1.8814,1.8814,0,0,1-1.1615.64,7.4869,7.4869,0,0,1-3.1418.0566,3.9134,3.9134,0,0,0-.6855,3.0287,1.3,1.3,0,0,1,.0361.6064c-.1146.3912-.59.5266-.9907.5992a17.979,17.979,0,0,1-3.1706.379,7.3642,7.3642,0,0,1-1.2679-.1038,4.3308,4.3308,0,0,1-3.4214-2.5478,3.12,3.12,0,0,0-.5889-1.3054c-.6941-.6563-1.9321-.1377-2.73-.6628a2.8892,2.8892,0,0,1-.8906-1.6952,7.3161,7.3161,0,0,0-.9432-1.9554,2.1374,2.1374,0,0,0-.7822-.7637,1.8816,1.8816,0,0,0-.8228-.1556l-.0374,0A4.2059,4.2059,0,0,0,1.67,22.8994a29.14,29.14,0,0,1,.2443-5.2808,8.4043,8.4043,0,0,1,.901-3.0839c.3168-.5491.7371-1.0314,1.0765-1.5668.05-.08.0812-.1669.1266-.2484-.001-.0606-.0091-.1192-.0091-.18A11.5572,11.5572,0,0,1,15.5669.9822m4.9156,12.7955a3.8837,3.8837,0,1,0-3.8837-3.8836,3.8836,3.8836,0,0,0,3.8837,3.8836m-9.606,0A3.8837,3.8837,0,1,0,6.9928,9.8941a3.8836,3.8836,0,0,0,3.8837,3.8836M16.41,17.3069a17.68,17.68,0,0,1-3.9921-.4568,7.97,7.97,0,0,1-2.2985-.8558c-.1627-.0971-.4282-.3875-.628-.3875a.1955.1955,0,0,0-.178.1268c-.1175.2309.2494.7418.3111.98a14.3162,14.3162,0,0,1,.1762,1.4237c.1832,1.192.9234,2.26,1.0072,3.4626a2.7559,2.7559,0,0,0,1.4542-1.59,20.7728,20.7728,0,0,1,1.3059,3.4845,2.3154,2.3154,0,0,1,1.154-1.1133,4.2844,4.2844,0,0,0,.9608-.4243c.5631-.4349.6671-1.368,1.3324-1.62a3.1881,3.1881,0,0,1,.3542,1.4577,2.8023,2.8023,0,0,0,1.2776-.4562q1.4416-.8046,2.8568-1.6554a5.4587,5.4587,0,0,0,1.4779-1.1457,11.374,11.374,0,0,0,.7148-1.1271,5.5121,5.5121,0,0,1,1.8979-1.813,14.7166,14.7166,0,0,1-5.1357,1.348c-1.1106.1512-2.2233.3027-3.3433.3477q-.3525.0141-.7054.0141M15.5669-.0178A12.5718,12.5718,0,0,0,3.01,12.484c-.1332.211-.2687.3949-.4037.5792a10.5917,10.5917,0,0,0-.6566.9718A9.4181,9.4181,0,0,0,.9241,17.4819a30.1955,30.1955,0,0,0-.2527,5.4622L.766,25.0615,2.34,23.6421a3.2037,3.2037,0,0,1,2.0862-.8139h.0018a.994.994,0,0,1,.4125.0556,1.47,1.47,0,0,1,.3919.4272,6.2937,6.2937,0,0,1,.814,1.6875l.0646.2145a3.361,3.361,0,0,0,1.2317,2.02,3.3716,3.3716,0,0,0,1.83.443,1.8538,1.8538,0,0,1,.7624.1109,1.787,1.787,0,0,1,.21.5269c.0395.1313.0793.2622.1247.389a5.2779,5.2779,0,0,0,4.1912,3.1959,8.3049,8.3049,0,0,0,1.44.1186,18.9272,18.9272,0,0,0,3.3487-.395,2.0709,2.0709,0,0,0,1.7722-1.3021,2.0346,2.0346,0,0,0-.0017-1.016l-.0122-.0615a2.9132,2.9132,0,0,1,.2168-1.75,8.49,8.49,0,0,0,2.8569-.172,2.8338,2.8338,0,0,0,1.753-1.04,3.0771,3.0771,0,0,0,.4577-1.6144l.01-.129a6.9038,6.9038,0,0,1,1.1464-3.292,6.6194,6.6194,0,0,1,2.31.6447l1.1766.5775.2461-1.2874a10.3176,10.3176,0,0,0-1.3321-7.2632c-.3093-.5024-.6557-.9691-.9907-1.42-.2867-.3863-.56-.7543-.8-1.1294A12.5961,12.5961,0,0,0,15.5669-.0178Zm4.9156,12.7955a2.8837,2.8837,0,1,1,2.8837-2.8836,2.8869,2.8869,0,0,1-2.8837,2.8836Zm-9.606,0A2.8837,2.8837,0,1,1,13.76,9.8941a2.8869,2.8869,0,0,1-2.8837,2.8836Zm.4532,6.87q-.054-.1419-.1073-.2786a6.9065,6.9065,0,0,1-.433-1.3836c-.025-.1624-.0369-.3269-.05-.4912l-.0083-.1042a10.6458,10.6458,0,0,0,1.2483.383l-.65,1.8746ZM16.41,18.3069q.3729,0,.7455-.0149c1.1679-.0469,2.322-.2041,3.4381-.356.5747-.0783,1.1745-.16,1.7828-.2681a2.6563,2.6563,0,0,1-.17.2374,4.6019,4.6019,0,0,1-1.2182.9206c-.93.5589-1.8815,1.11-2.8289,1.6392l-.0065.0037a4.1546,4.1546,0,0,0-.25-.5911l-.4094-.7924-.8339.3166a2.5473,2.5473,0,0,0-1.29,1.31,1.9563,1.9563,0,0,1-.299.4541,1.7331,1.7331,0,0,1-.3569.15c-.1321.0462-.264.0933-.3913.1487a3.1687,3.1687,0,0,0-.304.1521,21.7822,21.7822,0,0,0-.856-2.04l-.8273-1.72a18.6847,18.6847,0,0,0,4.074.45Z"/></svg>