<svg id="Layer_1" data-name="Layer 1" xmlns="http://www.w3.org/2000/svg" xmlns:xlink="http://www.w3.org/1999/xlink" viewBox="0 0 512 384"><defs><style>.cls-1{fill:#a67c52;}.cls-2{fill:#9b6e46;}.cls-3{fill:#b78e69;}.cls-4{fill:url(#linear-gradient);}.cls-5{fill:url(#linear-gradient-2);}</style><linearGradient id="linear-gradient" x1="236.86" y1="278.28" x2="211.93" y2="328.14" gradientUnits="userSpaceOnUse"><stop offset="0"/><stop offset="0.88" stop-opacity="0.31"/><stop offset="1" stop-opacity="0"/></linearGradient><linearGradient id="linear-gradient-2" x1="19.13" y1="278.27" x2="44.22" y2="328.44" xlink:href="#linear-gradient"/></defs><polygon class="cls-1" points="64 64 0 32 64 0 128 32 64 64"/><polygon class="cls-1" points="192 64 128 32 192 0 256 32 192 64"/><polygon class="cls-2" points="128 32 128 96 192 128 192 64 128 32"/><polygon class="cls-3" points="256 32 192 64 192 128 256 96 256 32"/><polygon class="cls-2" points="0 32 0 34 64 66 64 64 0 32"/><polygon class="cls-3" points="128 32 64 64 64 66 128 34 128 32"/><polygon class="cls-4" points="192 256 192 320 256 352 256 288 192 256"/><polygon class="cls-5" points="64 256 0 288 0 352 64 320 64 256"/><polygon class="cls-1" points="320 64 256 32 320 0 384 32 320 64"/><polygon class="cls-2" points="256 32 256 96 256 160 320 192 320 128 320 64 256 32"/><polygon class="cls-3" points="320 64 320 128 320 192 384 160 384 96 384 32 320 64"/><polygon class="cls-1" points="448 64 384 32 448 0 512 32 448 64"/><polygon class="cls-2" points="384 32 384 96 384 160 384 224 448 256 448 192 448 128 448 64 384 32"/><polygon class="cls-3" points="448 64 448 128 448 192 448 256 512 224 512 160 512 96 512 32 448 64"/></svg>