<svg id="Layer_1" data-name="Layer 1" xmlns="http://www.w3.org/2000/svg" viewBox="0 0 577.22 834.4"><path d="M537.88,146.86c-24.82-22.94-61.41-31.2-83,2.17-9.78,15.12-9.81,34.54-17,51-12.79,29.12-44.69,43.61-71.15,61.24-41.23,27.47-74.37,69.58-83.15,118.33s10.31,103.48,52.14,130c-22.58-6.33-32.22-32.42-38.08-55.13-5.06-19.6-9.6-41.19-.76-59.41,5.9-12.17,17-20.91,27.64-29.21,29-22.47,61.71-46.15,98.23-43.11a34.59,34.59,0,0,0,.53,17A25.23,25.23,0,0,0,406.57,351a26.08,26.08,0,0,0,12.59,4.7,215.85,215.85,0,0,0-31.34,89.43,65.29,65.29,0,0,1,35.62,30.16c2.42,4.45,4.36,9.58,3.15,14.5-1.28,5.25-5.82,9-10.43,11.85a69.89,69.89,0,0,1-54.1,7.83c8.38,5.34,9.79,16.69,13.45,25.93s15.12,17.93,22.69,11.49l-9.08,28.67a135.47,135.47,0,0,1,53.19,35,25.66,25.66,0,0,0-4.21,16.29,36.15,36.15,0,0,1,31.33,16.79c1.24,2,2.35,4.24,4.26,5.65,7.95,5.82,16.35-6.84,18.17-16.53l59.1,295a105.32,105.32,0,0,1,37-5.08c-9.17-59.22,8.62-120.33-1.78-179.34-6.61-37.44-23.4-79.68-1-110.42l120.26,240,50-22.42A498.52,498.52,0,0,0,681.74,675.1c-13.29-19.83-28.63-40.45-28.92-64.33,4.29-2.36,8.74-4.53,12.59-7.39-5-9.88-14.11-17.19-19.16-26.82-5.54-10.55-5.84-24.53-8.85-36-1.63-6.22-3.5-12.5-7-17.87-8.19-12.43-24.66-19.16-28.81-33.46-2.4-8.3.07-17.26-1.15-25.82-2.45-17.13-17.77-29.57-24.89-44.75-8.07-17.22-9.56-37.78-10.45-56.56l16.56,30.64c8.47-10.18,17.34-21.33,18.1-34.54s-11.21-27.69-23.93-24c23.46-1.21,42.4,18.52,64.84,25.46,44.74,13.82,93.91-25,138-9.39,5.82,2.06,11.38,5,17.47,6.09a28.7,28.7,0,0,0,18-2.81,40.7,40.7,0,0,1,15,23.57,25.39,25.39,0,0,0,24.34-40.56c-7.65-9.89-21.19-12.75-33.62-14.13-29.82-3.3-59.94-2-89.89-3.66-57.5-3.15-113.81-17-169.72-30.82-16.62-4.1-34.2-8.74-46-21.14,6,6.3,34.06-22.89,36.88-28.69a70.74,70.74,0,0,1,23.73,29.73c-4.14-10-17.68-22.28-18.83-32.9-1-9.37,7.35-21.6,8-32.12.77-13.08-3.74-25.94-10.48-37-2.46-4-25.31-24.89-25.18-26.83.09-1.23,1.35-2,2.16-2.9,1.92-2.17,1.42-5.52.5-8.27-5-14.89-18.94-25.48-34-30.07s-31.11-4-46.75-2.55c19.13-5.31,39.77,1.55,56.49,12.26,5.82,3.72,11.43,8,15.47,13.61s6.38,12.72,5.11,19.52" transform="translate(-281.43 -93.36)"/><path d="M792.16,348c4.19,34.5-3.22,69.24-10.59,103.2-3.41,15.7-6.89,31.61-14.38,45.82-4.92,9.37-11.48,17.78-16.61,27-6.76,12.21-10.91,25.67-15,39-4.1-5-8.35-10.08-14-13.16s-13.18-3.68-18.29.26a20.53,20.53,0,0,0,18.18,15.37c-2.42,12.05-8,23.19-13.56,34.16-23.1,45.75-45.49,94.5-77,135.08-13.29,17.08-29.92,31.32-43.26,48.35-21.92,28-34.57,62.88-59.64,88.06a75.19,75.19,0,0,1,24.89,20.45c24.1-18.2,48.57-36.78,66.26-61.25,7.38-10.19,13.47-21.28,21-31.34a155.66,155.66,0,0,1,37.44-35c15.36-10.39,33.71-20.33,38.6-38.21,2.12-7.77,1.29-16,2-24,1.9-21.62,16.54-33.3,26.32-50.82,11.8-21.13,19.22-44.71,19.48-69,10.47,2.78,21.4-9.74,17.22-19.74a63.32,63.32,0,0,0-18.69-.5c11.81-17.69,14.72-39.66,22-59.64,5.65-15.47,14-29.84,19.86-45.23a153,153,0,0,0,4.57-94.24C805.77,359.55,795.34,351.11,792.16,348Z" transform="translate(-281.43 -93.36)"/></svg>