<svg id="Layer_1" data-name="Layer 1" xmlns="http://www.w3.org/2000/svg" xmlns:xlink="http://www.w3.org/1999/xlink" viewBox="0 0 279.97 279.97"><defs><style>.cls-1{fill:url(#radial-gradient);}.cls-2{fill:#29abe2;}.cls-3{fill:none;}.cls-4{fill:#22b573;}.cls-5{fill:#fff;}.cls-6{fill:#e6e6e6;opacity:0.5;}</style><radialGradient id="radial-gradient" cx="139.98" cy="139.98" r="139.98" gradientUnits="userSpaceOnUse"><stop offset="0.87" stop-color="#29abe2"/><stop offset="0.88" stop-color="#29abe2" stop-opacity="0.94"/><stop offset="0.91" stop-color="#29abe2" stop-opacity="0.76"/><stop offset="0.94" stop-color="#29abe2" stop-opacity="0.49"/><stop offset="0.99" stop-color="#29abe2" stop-opacity="0.11"/><stop offset="1" stop-color="#29abe2" stop-opacity="0"/></radialGradient></defs><circle class="cls-1" cx="139.98" cy="139.98" r="139.98"/><circle class="cls-2" cx="142.24" cy="139.98" r="128"/><path class="cls-3" d="M482,477.58a11.14,11.14,0,0,0-1.67-4.05,10.51,10.51,0,0,0-2.68-2.18L457.75,458.6c-4.2-2.7-8.63-5.65-10.69-10.21-1.51-3.36-1.53-7.17-2-10.83a43.16,43.16,0,0,0-14.25-26.73c-2.95-2.58-6.4-4.95-7.82-8.6-1.62-4.2-.11-8.89,1.41-13.13,1.36-3.81,2.88-7.84,6.12-10.25,2.71-2,6.21-2.59,9.52-3.27a95.76,95.76,0,0,0,36.56-16,12,12,0,0,0,3.24-3c1.91-3,1.06-6.82.9-10.34-.23-5,2.06-14.8,6.93-18.63a128,128,0,0,0-203.07,19c5.26,1.12,10.52,3.35,15.39,4.71a191.18,191.18,0,0,0,28.2,5.9c4.39.53,8.86.86,13,2.37s8.06,4.43,9.54,8.6c1.63,4.59.09,9.6-.43,14.44a34.15,34.15,0,0,0,9.52,27.16c4.4,4.44,10.39,8.26,11.4,14.43,1.07,6.54-4.8,12.88-11.38,13.69s-13.11-2.9-17.2-8.11c-1-1.21-2.16-2.67-3.67-2.37a3,3,0,0,0-1.47.87c-4.25,4.15-.93,11.44,3.32,15.6,1.39,1.36,3,2.86,3,4.8a6.07,6.07,0,0,1-1.23,3.28,25.07,25.07,0,0,1-13.82,10.27l-9.89,15.13a5.19,5.19,0,0,0-1.1,2.71,4.6,4.6,0,0,0,1.61,3,18,18,0,0,0,17.21,4.57,43.15,43.15,0,0,1,5.62-1.59c6-.79,11.16,4,15.33,8.37a17.15,17.15,0,0,0,1.67,28.76,11.8,11.8,0,0,0,9,1.44c3-.88,5.28-3.24,7.23-5.67a58.62,58.62,0,0,0,12.8-35.53c0-1.48.05-3.11,1.05-4.2a5.62,5.62,0,0,1,2.34-1.3,53,53,0,0,1,31.3-1,6,6,0,0,1,3,1.52c1.41,1.6,1.8,4.89,3.89,4.51a86.86,86.86,0,0,1-30.93,30.63c-5.42,11.14-18.52,16.79-30.59,20.53a18,18,0,0,1-5,1,19,19,0,0,1-6.4-1.37c-4.61-1.57-9.22-3.13-13.78-4.82-7.18-2.64-14.25-5.59-21.25-8.69a128,128,0,0,0,169.43-23.67A60.08,60.08,0,0,1,482,477.58ZM404.89,447.7a10.2,10.2,0,0,1-.93,4.38,8.86,8.86,0,0,1-4,3.48,20.43,20.43,0,0,1-7.41,2.16c-1.68.16-3.59.2-4.73,1.45a10.85,10.85,0,0,0-1.43,3.08c-1.3,2.92-4.61,4.55-7.8,4.75s-6.34-.75-9.4-1.69a20.21,20.21,0,0,1,10-4.2,4.53,4.53,0,0,0,2.94-1,5,5,0,0,0,.84-2.65,11.08,11.08,0,0,1,2.35-5.26c2.88-3.57,7.86-5.25,10-9.31,1.45-2.74,1.13-5.7.72-8.65-.24-1.65-2.25-6.54-1.38-8,2.33-3.89,7.65,2.27,8.35,4.78A52.78,52.78,0,0,1,404.89,447.7Z" transform="translate(-251.1 -274.13)"/><path class="cls-4" d="M356.82,533.77a19,19,0,0,0,6.4,1.37,18,18,0,0,0,5-1c12.07-3.74,25.17-9.39,30.59-20.53a86.86,86.86,0,0,0,30.93-30.63c-2.09.38-2.48-2.91-3.89-4.51a6,6,0,0,0-3-1.52,53,53,0,0,0-31.3,1,5.62,5.62,0,0,0-2.34,1.3c-1,1.09-1,2.72-1.05,4.2a58.62,58.62,0,0,1-12.8,35.53c-1.95,2.43-4.24,4.79-7.23,5.67a11.8,11.8,0,0,1-9-1.44,17.15,17.15,0,0,1-1.67-28.76c-4.17-4.39-9.32-9.16-15.33-8.37a43.15,43.15,0,0,0-5.62,1.59A18,18,0,0,1,319.41,483a4.6,4.6,0,0,1-1.61-3,5.19,5.19,0,0,1,1.1-2.71l9.89-15.13a25.07,25.07,0,0,0,13.82-10.27,6.07,6.07,0,0,0,1.23-3.28c0-1.94-1.61-3.44-3-4.8-4.25-4.16-7.57-11.45-3.32-15.6a3,3,0,0,1,1.47-.87c1.51-.3,2.72,1.16,3.67,2.37,4.09,5.21,10.62,8.92,17.2,8.11s12.45-7.15,11.38-13.69c-1-6.17-7-10-11.4-14.43a34.15,34.15,0,0,1-9.52-27.16c.52-4.84,2.06-9.85.43-14.44-1.48-4.17-5.38-7.09-9.54-8.6s-8.63-1.84-13-2.37a191.18,191.18,0,0,1-28.2-5.9c-4.87-1.36-10.13-3.59-15.39-4.71a128,128,0,0,0,37.19,173.7c7,3.1,14.07,6,21.25,8.69C347.6,530.64,352.21,532.2,356.82,533.77Z" transform="translate(-251.1 -274.13)"/><path class="cls-4" d="M480.74,346.23c.16,3.52,1,7.37-.9,10.34a12,12,0,0,1-3.24,3,95.76,95.76,0,0,1-36.56,16c-3.31.68-6.81,1.24-9.52,3.27-3.24,2.41-4.76,6.44-6.12,10.25-1.52,4.24-3,8.93-1.41,13.13,1.42,3.65,4.87,6,7.82,8.6a43.16,43.16,0,0,1,14.25,26.73c.47,3.66.49,7.47,2,10.83,2.06,4.56,6.49,7.51,10.69,10.21l19.86,12.75a10.51,10.51,0,0,1,2.68,2.18,11.14,11.14,0,0,1,1.67,4.05,60.08,60.08,0,0,0,9.26,19,128,128,0,0,0-3.55-169C482.8,331.43,480.51,341.23,480.74,346.23Z" transform="translate(-251.1 -274.13)"/><path class="cls-4" d="M394.65,426.24c-.87,1.44,1.14,6.33,1.38,8,.41,2.95.73,5.91-.72,8.65-2.14,4.06-7.12,5.74-10,9.31a11.08,11.08,0,0,0-2.35,5.26,5,5,0,0,1-.84,2.65,4.53,4.53,0,0,1-2.94,1,20.21,20.21,0,0,0-10,4.2c3.06.94,6.2,1.9,9.4,1.69s6.5-1.83,7.8-4.75a10.85,10.85,0,0,1,1.43-3.08c1.14-1.25,3-1.29,4.73-1.45a20.43,20.43,0,0,0,7.41-2.16,8.86,8.86,0,0,0,4-3.48,10.2,10.2,0,0,0,.93-4.38A52.78,52.78,0,0,0,403,431C402.3,428.51,397,422.35,394.65,426.24Z" transform="translate(-251.1 -274.13)"/><path class="cls-3" d="M431.49,291.9a5.38,5.38,0,0,1-.39,1.15c-1.58,3.14-5.61,3.84-8.87,5.15-6.84,2.74-12,9.53-19.35,10.24a25.16,25.16,0,0,1-5.27-.23l-12.18-1.4c-8.29-.95-16.84,1.14-20.42,9.74a10.71,10.71,0,0,1-1.18,2.43c-1.2,1.59-3.47,2.15-4.54,3.83a14.79,14.79,0,0,1,.85-8.24c.82-2,2.08-4.09,1.3-6.08l-3,2c-10.82,7.15-29.78,6.46-42.08,4.14a16.77,16.77,0,0,1-1.08-1.94,128,128,0,0,0,2.65,204.82c6.66-1.77,16.45.61,21.06,2.64,9.29,4.11,18,11.49,28.7,11.19,4.63-.13,9.08-1.79,13.31-3.71a25.38,25.38,0,0,0,7-4.29,29.28,29.28,0,0,0,5-6.88c1.8-3.09,3.67-6.51,3.11-10.05-.26-1.61-1-3.19-.78-4.8a7.85,7.85,0,0,1,2-3.58l10.35-12.79q-1.49,13.14-4.11,26.11a21.68,21.68,0,0,0,12.18.46,8.55,8.55,0,0,0,6,6,17.55,17.55,0,0,0,6.81-.09,165.82,165.82,0,0,1,32.88-1.18c1,.07,2.16.24,2.64,1.12a2.7,2.7,0,0,1,.14,1.69,13.51,13.51,0,0,1-.38,1.61A128,128,0,0,0,431.49,291.9Z" transform="translate(-251.1 -274.13)"/><path class="cls-5" d="M358.41,310.5l3-2c.78,2-.48,4.11-1.3,6.08a14.79,14.79,0,0,0-.85,8.24c1.07-1.68,3.34-2.24,4.54-3.83a10.71,10.71,0,0,0,1.18-2.43c3.58-8.6,12.13-10.69,20.42-9.74l12.18,1.4a25.16,25.16,0,0,0,5.27.23c7.33-.71,12.51-7.5,19.35-10.24,3.26-1.31,7.29-2,8.87-5.15a5.38,5.38,0,0,0,.39-1.15,128.15,128.15,0,0,0-116.24,20.8,16.77,16.77,0,0,0,1.08,1.94C328.63,317,347.59,317.65,358.41,310.5Z" transform="translate(-251.1 -274.13)"/><path class="cls-5" d="M464.07,517.66c-.48-.88-1.64-1-2.64-1.12a165.82,165.82,0,0,0-32.88,1.18,17.55,17.55,0,0,1-6.81.09,8.55,8.55,0,0,1-6-6,21.68,21.68,0,0,1-12.18-.46q2.63-13,4.11-26.11L397.31,498a7.85,7.85,0,0,0-2,3.58c-.25,1.61.52,3.19.78,4.8.56,3.54-1.31,7-3.11,10.05a29.28,29.28,0,0,1-5,6.88,25.38,25.38,0,0,1-7,4.29c-4.23,1.92-8.68,3.58-13.31,3.71-10.68.3-19.41-7.08-28.7-11.19-4.61-2-14.4-4.41-21.06-2.64A128,128,0,0,0,463.83,521a13.51,13.51,0,0,0,.38-1.61A2.7,2.7,0,0,0,464.07,517.66Z" transform="translate(-251.1 -274.13)"/><path class="cls-3" d="M457.16,491.63a26.09,26.09,0,0,1-10-2.11c-3.09-1.49-5.74-4.23-6.35-7.59a8,8,0,0,0-.63-2.58,5.16,5.16,0,0,0-3.31-2c-8.23-2.25-17-1.53-25.34-3.4a41.69,41.69,0,0,1-14.71-6.49,12.23,12.23,0,0,1-2.94-2.66,14.56,14.56,0,0,1-1.95-4.68l-1.89-6.67,55,5.39c2.68.27,5.74.41,7.68-1.46,3.05-2.94,1-8.13,2.19-12.19,1-3.38,4.29-5.68,7.72-6.49s7-.39,10.52.05c10.51,1.33,22,1.67,32.31,4,6,1.37,8.65,5.12,10,9.73a128.17,128.17,0,0,0-33.66-130.88,7,7,0,0,1-.19,5.66,12.89,12.89,0,0,1-3.24,3.71l-10.62,9.43a20.36,20.36,0,0,0-5,5.7,14.82,14.82,0,0,0-1.32,7,15.26,15.26,0,0,0,2.07,8,8.16,8.16,0,0,0,6.94,4c1.85-.08,3.78-.94,5.48-.21a6.39,6.39,0,0,1,2.43,2.41c2.44,3.53,5,7.62,4.05,11.8-.69,3.08-3.26,5.49-6.16,6.74a25.14,25.14,0,0,1-9.28,1.63,10.71,10.71,0,0,1-4-.39c-6.23-2.18-5.56-13-11.85-15-2-.62-4.06-.15-6.05.33L425.66,377a3.56,3.56,0,0,0-2.22,1.15c-.68,1-.25,2.41-.9,3.41-.81,1.23-2.86,1-3.8-.2a6.42,6.42,0,0,1-1-4.21,39.25,39.25,0,0,1,3.44-15.53c2.45-5.45,6.25-11,5-16.85-1.32-6.18,3.87-7,8-10.39,3.85-3.16,7.32-7.17,7.79-12.34.29-3.27-.68-6.63.11-9.82a15.63,15.63,0,0,1,3.71-6.27c2.08-2.37,4.91-4.67,7.9-4.79a128.06,128.06,0,0,0-169.2,45.62,8.63,8.63,0,0,0,1.05,3c1.54,2.62,4.36,4.19,7.08,5.56q6.69,3.41,13.63,6.3c6.37,2.65,13.42,5,20.07,3.15s11.92-9.78,8.59-15.83a73.74,73.74,0,0,1,25-6.74c2.76-.24,5.7-.29,8.11,1.08a18.15,18.15,0,0,1,4.29,4.06,49.46,49.46,0,0,0,30.2,16.13c-1.18,2.49-3.35,4.34-5.56,6a69.54,69.54,0,0,1-58.84,11.19c-3.92-1.06-7.81-2.48-11.87-2.63s-8.46,1.26-10.65,4.68c-.42.66-.83,1.45-1.57,1.69a2.89,2.89,0,0,1-1.86-.25l-14.94-5.54c-2.21-.82-4.53-1.66-6.88-1.38-5,.58-8.08,5.93-8.82,10.9s0,10.15-1.27,15c-1.52,5.84-5.73,10.52-9.1,15.52-2.43,3.6-4.48,7.84-4.7,12.06.23,1.74.49,3.46.79,5.18,2.59,6.75,10.69,9.57,17.91,10.56,6.6.92,13.44,1,19.8-1,2.54-.8,5.15-2.09,6.41-4.43,1-1.9,1-4.15,1.12-6.3A42.93,42.93,0,0,1,316,419.91a10,10,0,0,1,3.25-4.5,11.27,11.27,0,0,1,5.32-1.43l27.11-2.71a2.39,2.39,0,0,1,3.22,2.42c.55,3.26,1.1,6.65.19,9.82-3.1,10.82-20.66,13.3-21.73,24.5-.64,6.69,5.93,12.36,12.61,13.1s13.2-2.14,19.14-5.3A30.83,30.83,0,0,0,373.4,450c.11-2.59.6-5,2.39-6.83a8.46,8.46,0,0,1,1.18-1c.42-2.69.46-5.5,1.1-8.16,1.76-7.35,7.91-12.89,10.5-20,1.74-4.78,2.12-10.61,6.24-13.59,4-2.85,9.41-1.62,14.1-.27,5.5,1.58,11.61,3.66,14.14,8.8s.16,11.85-4.11,15.84-10,6-15.52,7.87q-11.1,3.78-22.19,7.6a18.16,18.16,0,0,0-4.26,1.9,16.68,16.68,0,0,1-1.15,4.19A13.68,13.68,0,0,1,373.4,450c-.12,2.69.16,5.58-.19,8.22-.72,5.26-4.27,9.84-8.73,12.74s-9.72,4.26-15,5a71.76,71.76,0,0,1-22.89-.47c-6.48-1.2-13.21-3.28-19.5-1.31a3.94,3.94,0,0,0-2.3,1.48,4.66,4.66,0,0,0-.17,3.26,82,82,0,0,1,.78,25,7,7,0,0,1-.7,2.57A128,128,0,0,0,502.3,481.29,84.3,84.3,0,0,1,457.16,491.63Z" transform="translate(-251.1 -274.13)"/><path class="cls-3" d="M278.49,357.56a126.37,126.37,0,0,0-6.86,16.84c2.16-2.47,4.51-4.8,5.81-7.79A17.72,17.72,0,0,0,278.49,357.56Z" transform="translate(-251.1 -274.13)"/><path class="cls-3" d="M470.7,312.13q-5.07-3.84-10.51-7.19c.7.78,1.39,1.58,2.13,2.28C464.68,309.47,467.69,310.8,470.7,312.13Z" transform="translate(-251.1 -274.13)"/><path class="cls-6" d="M304.64,478.92a4.66,4.66,0,0,1,.17-3.26,3.94,3.94,0,0,1,2.3-1.48c6.29-2,13,.11,19.5,1.31a71.76,71.76,0,0,0,22.89.47c5.26-.75,10.53-2.12,15-5s8-7.48,8.73-12.74c.35-2.64.07-5.53.19-8.22a30.83,30.83,0,0,1-8.25,5.82c-5.94,3.16-12.46,6-19.14,5.3S332.76,454.7,333.4,448c1.07-11.2,18.63-13.68,21.73-24.5.91-3.17.36-6.56-.19-9.82a2.39,2.39,0,0,0-3.22-2.42L324.61,414a11.27,11.27,0,0,0-5.32,1.43,10,10,0,0,0-3.25,4.5,42.93,42.93,0,0,0-3.59,14.92c-.11,2.15-.09,4.4-1.12,6.3-1.26,2.34-3.87,3.63-6.41,4.43-6.36,2-13.2,1.89-19.8,1-7.22-1-15.32-3.81-17.91-10.56a127.68,127.68,0,0,0,37.51,70.49,7,7,0,0,0,.7-2.57A82,82,0,0,0,304.64,478.92Z" transform="translate(-251.1 -274.13)"/><path class="cls-6" d="M280.22,403.21c1.27-4.87.52-10,1.27-15s3.82-10.32,8.82-10.9c2.35-.28,4.67.56,6.88,1.38l14.94,5.54a2.89,2.89,0,0,0,1.86.25c.74-.24,1.15-1,1.57-1.69,2.19-3.42,6.6-4.83,10.65-4.68s8,1.57,11.87,2.63a69.54,69.54,0,0,0,58.84-11.19c2.21-1.65,4.38-3.5,5.56-6a49.46,49.46,0,0,1-30.2-16.13,18.15,18.15,0,0,0-4.29-4.06c-2.41-1.37-5.35-1.32-8.11-1.08a73.74,73.74,0,0,0-25,6.74c3.33,6.05-1.94,14-8.59,15.83s-13.7-.5-20.07-3.15q-6.93-2.9-13.63-6.3c-2.72-1.37-5.54-2.94-7.08-5.56a8.63,8.63,0,0,1-1.05-3q-3.22,5.22-6,10.75a17.72,17.72,0,0,1-1.05,9.05c-1.3,3-3.65,5.32-5.81,7.79a127.78,127.78,0,0,0-6.29,39.71,129.33,129.33,0,0,0,1.08,16.68c.22-4.22,2.27-8.46,4.7-12.06C274.49,413.73,278.7,409.05,280.22,403.21Z" transform="translate(-251.1 -274.13)"/><path class="cls-6" d="M377,442.19a8.46,8.46,0,0,0-1.18,1C374,445,373.51,447.4,373.4,450a13.68,13.68,0,0,0,2.42-3.61A16.68,16.68,0,0,0,377,442.19Z" transform="translate(-251.1 -274.13)"/><path class="cls-6" d="M403.42,432.69c5.54-1.89,11.26-3.87,15.52-7.87s6.69-10.6,4.11-15.84-8.64-7.22-14.14-8.8c-4.69-1.35-10.14-2.58-14.1.27-4.12,3-4.5,8.81-6.24,13.59-2.59,7.1-8.74,12.64-10.5,20-.64,2.66-.68,5.47-1.1,8.16a18.16,18.16,0,0,1,4.26-1.9Q392.32,436.48,403.42,432.69Z" transform="translate(-251.1 -274.13)"/><path class="cls-6" d="M445.75,306a15.63,15.63,0,0,0-3.71,6.27c-.79,3.19.18,6.55-.11,9.82-.47,5.17-3.94,9.18-7.79,12.34-4.11,3.38-9.3,4.21-8,10.39,1.25,5.85-2.55,11.4-5,16.85a39.25,39.25,0,0,0-3.44,15.53,6.42,6.42,0,0,0,1,4.21c.94,1.15,3,1.43,3.8.2.65-1,.22-2.43.9-3.41a3.56,3.56,0,0,1,2.22-1.15l19.45-4.65c2-.48,4.1-.95,6.05-.33,6.29,2,5.62,12.85,11.85,15a10.71,10.71,0,0,0,4,.39,25.14,25.14,0,0,0,9.28-1.63c2.9-1.25,5.47-3.66,6.16-6.74.95-4.18-1.61-8.27-4.05-11.8a6.39,6.39,0,0,0-2.43-2.41c-1.7-.73-3.63.13-5.48.21a8.16,8.16,0,0,1-6.94-4,15.26,15.26,0,0,1-2.07-8,14.82,14.82,0,0,1,1.32-7,20.36,20.36,0,0,1,5-5.7L478.39,331a12.89,12.89,0,0,0,3.24-3.71,7,7,0,0,0,.19-5.66,129.14,129.14,0,0,0-11.12-9.49c-3-1.33-6-2.66-8.38-4.91-.74-.7-1.43-1.5-2.13-2.28q-3.21-2-6.54-3.75C450.66,301.31,447.83,303.61,445.75,306Z" transform="translate(-251.1 -274.13)"/><path class="cls-6" d="M505.5,442.77c-10.3-2.36-21.8-2.7-32.31-4-3.5-.44-7.09-.86-10.52-.05S456,441.8,455,445.18c-1.2,4.06.86,9.25-2.19,12.19-1.94,1.87-5,1.73-7.68,1.46l-55-5.39,1.89,6.67a14.56,14.56,0,0,0,1.95,4.68,12.23,12.23,0,0,0,2.94,2.66,41.69,41.69,0,0,0,14.71,6.49c8.32,1.87,17.11,1.15,25.34,3.4a5.16,5.16,0,0,1,3.31,2,8,8,0,0,1,.63,2.58c.61,3.36,3.26,6.1,6.35,7.59a26.09,26.09,0,0,0,10,2.11,84.3,84.3,0,0,0,45.14-10.34,127.41,127.41,0,0,0,13.18-28.79C514.15,447.89,511.49,444.14,505.5,442.77Z" transform="translate(-251.1 -274.13)"/></svg>